<?xml version="1.0" standalone="no"?>
<svg xmlns="http://www.w3.org/2000/svg" height="1920pt" preserveAspectRatio="xMidYMid meet" viewBox="0 0 1920 1920" width="1920pt">
  <path d="m9325 19184c-532-25-881-60-1322-134-1460-246-2861-828-4053-1683-671-482-1308-1088-1825-1737-808-1015-1410-2185-1759-3425-445-1578-480-3189-105-4780 247-1043 676-2061 1243-2945 776-1212 1868-2269 3106-3009 227-136 233-140 143-96-154 75-80 25 182-122 336-189 785-403 1139-545 1904-760 3996-904 5950-408 1332 338 2617 1000 3704 1908 344 287 809 740 1084 1054 579 664 1047 1360 1418 2113 466 948 748 1892 880 2949 64 517 84 828 84 1281-1 381-14 617-54 970-285 2500-1531 4784-3500 6416-1338 1108-2928 1831-4595 2088-263 41-523 69-850 91-151 10-740 20-870 14zm600-1708c338-10 754-46 1000-87 652-109 1413-341 1999-610 82-38 151-67 153-65s-42 29-97 61-99 59-96 62c5 5 370-177 521-260 1192-656 2270-1695 2963-2854 178-298 423-772 502-973l38-95-47-66c-455-644-465-658-501-668-62-17-4607-1021-4621-1021-8 0-36 44-64 97-188 364-509 707-865 923-280 170-637 292-965 330-135 15-426 12-562-5-756-99-1407-542-1776-1210-62-113-133-274-168-383-22-69-25-72-49-67-14 3-1048 232-2299 509l-2273 503-259 359c-142 197-258 367-259 376 0 16 89 249 159 415 90 215 310 635 486 928 170 283 460 694 655 930 383 462 928 984 1365 1306 556 410 1325 838 1875 1042 650 241 1281 399 1900 476 245 31 794 60 1015 54 39-1 160-4 270-7zm7175-7310c206-102 379-187 383-189 12-4 10-682-3-887-15-241-46-549-70-694-96-571-240-1100-459-1676-103-272-125-324-242-560-221-449-464-849-762-1257-360-495-898-1056-1417-1478-559-455-1399-938-2095-1205-378-145-904-297-1330-385l-120-24-31 32c-17 18-135 145-262 284l-232 251-10 524c-5 287-12 663-15 833-8 471-14 821-20 1130-21 1106-46 2654-43 2723l3 82 107 44c444 181 844 518 1103 932 112 177 221 422 267 596l23 88 50 11c27 6 1110 239 2405 518 1509 325 2362 505 2375 500 11-4 189-91 395-193zm-12190-664 2495-538 55-110c207-413 508-739 907-983 109-67 304-161 391-188l52-17 1-300c0-166 2-308 3-316 2-8 6-361 10-785 3-423 8-907 11-1075 6-388 13-1063 20-1860 3-344 8-693 11-775l5-151-74-94c-40-52-150-195-245-316l-171-222-104 19c-229 41-676 147-932 220-476 138-848 280-1260 484-419 207-756 413-1275 780-407 288-1003 858-1398 1337-213 260-428 573-629 918-471 808-740 1519-937 2478-63 308-73 367-101 642-32 318-45 544-45 812v218l358 179c196 99 357 180 357 180s1123-242 2495-537z" transform="matrix(.1 0 0 -.1 0 1920)" fill="#09630B" stroke="none" stroke-width="2" vector-effect="non-scaling-stroke"/>
</svg>
